<?xml version="1.0" standalone="no"?>
<!DOCTYPE svg PUBLIC "-//W3C//DTD SVG 20010904//EN"
 "http://www.w3.org/TR/2001/REC-SVG-20010904/DTD/svg10.dtd">
<svg version="1.0" xmlns="http://www.w3.org/2000/svg"
 width="200.000000pt" height="200.000000pt" viewBox="0 0 200.000000 200.000000"
 preserveAspectRatio="xMidYMid meet">
<metadata>
Created by potrace 1.10, written by Peter Selinger 2001-2011
</metadata>
<g transform="translate(0.000000,200.000000) scale(0.100000,-0.100000)"
fill="#000000" stroke="none">
<path d="M810 1581 c0 -24 -118 -135 -174 -164 -58 -31 -66 -32 -178 -32
l-117 0 -22 -75 c-100 -337 64 -703 385 -861 56 -27 108 -49 116 -49 8 0 60
22 116 49 321 158 485 524 385 861 l-22 75 -112 0 c-107 0 -116 2 -179 33 -47
23 -84 51 -123 94 -30 34 -55 65 -55 70 0 4 -4 8 -10 8 -5 0 -10 -4 -10 -9z
m33 -61 c61 -103 266 -189 390 -162 l47 10 15 -52 c83 -275 -12 -586 -233
-761 -66 -53 -207 -125 -244 -125 -36 0 -172 71 -240 125 -221 174 -316 486
-233 761 l15 52 43 -10 c125 -29 310 44 385 152 15 22 29 39 32 40 3 0 14 -13
23 -30z"/>
<path d="M700 1210 l0 -100 -95 0 -95 0 0 -115 0 -115 95 0 95 0 0 -100 0
-100 120 0 120 0 0 100 0 100 95 0 95 0 0 115 0 115 -95 0 -95 0 0 100 0 100
-120 0 -120 0 0 -100z m210 -20 l0 -99 96 -3 96 -3 0 -90 0 -90 -96 -3 -96 -3
0 -99 0 -100 -90 0 -90 0 0 100 0 100 -95 0 -95 0 0 95 0 95 95 0 95 0 0 100
0 100 90 0 90 0 0 -100z"/>
<path d="M1169 1544 c-7 -15 -36 -46 -63 -70 -27 -25 -47 -46 -45 -48 2 -3 29
-9 59 -14 47 -9 106 -5 182 11 15 3 46 -94 64 -198 28 -160 1 -325 -79 -480
-32 -62 -63 -102 -139 -178 l-97 -98 56 -26 c32 -15 69 -26 83 -26 39 0 187
75 250 127 231 191 325 507 235 786 l-15 45 -112 0 c-101 0 -119 3 -168 26
-60 29 -147 102 -169 143 -8 14 -17 26 -21 26 -4 0 -13 -12 -21 -26z m60 -56
c27 -29 36 -45 28 -50 -15 -9 -147 -11 -147 -2 0 6 70 90 77 93 1 1 20 -18 42
-41z m322 -142 l96 -1 13 -49 c47 -185 21 -388 -72 -544 -75 -126 -226 -254
-349 -296 -54 -18 -57 -19 -104 -1 l-48 19 50 45 c109 98 187 222 233 366 33
104 39 284 12 390 -10 44 -23 88 -26 97 -7 15 -1 14 46 -5 41 -16 75 -21 149
-21z"/>
</g>
</svg>
