<?xml version="1.0" encoding="UTF-8"?>
<svg width="124px" height="124px" viewBox="0 0 124 124" version="1.1" xmlns="http://www.w3.org/2000/svg" xmlns:xlink="http://www.w3.org/1999/xlink">
    <!-- Generator: Sketch 63.1 (92452) - https://sketch.com -->
    <title>_Building Blocks/Atoms/Icons/Brand Icons/laptop_with_checkmark</title>
    <desc>Created with Sketch.</desc>
    <g id="_Building-Blocks/Atoms/Icons/Brand-Icons/laptop_with_checkmark" stroke="none" stroke-width="1" fill="none" fill-rule="evenodd">
        <g id="Aetna_Icon_technology_laptop_with_checkmark_rgb_v" transform="translate(0.000000, 18.000000)" fill="#5A2E6F">
            <g id="Shape">
                <path d="M115.628025,88.4585987 L8.41146497,88.4585987 C3.83057325,88.4585987 0.0789808917,84.7464968 0.0789808917,80.1656051 L0.0789808917,76.2955414 L9.0433121,76.2955414 L9.0433121,8.29299363 C9.0433121,3.71210191 12.755414,0 17.3363057,0 L106.624204,0 C111.205096,0 114.917197,3.71210191 114.917197,8.29299363 L114.917197,76.256051 L123.881841,76.256051 L123.881841,80.1261146 C123.921019,84.7464968 120.208917,88.4585987 115.628025,88.4585987 L115.628025,88.4585987 Z M4.02802548,80.244586 C4.06751592,82.6140127 6.00254777,84.5095541 8.37197452,84.5095541 L115.588535,84.5095541 C117.957962,84.5095541 119.892994,82.6140127 119.932484,80.244586 L4.02802548,80.244586 L4.02802548,80.244586 Z M12.9923567,76.2955414 L111.007643,76.2955414 L111.007643,8.29299363 C111.007643,5.88407643 109.072611,3.94904459 106.663694,3.94904459 L17.3363057,3.94904459 C14.9273885,3.94904459 12.9923567,5.88407643 12.9923567,8.29299363 L12.9923567,76.2955414 L12.9923567,76.2955414 Z M107.17707,71.9121019 L16.7834395,71.9121019 L16.7834395,7.77961783 L107.17707,7.77961783 L107.17707,71.9121019 L107.17707,71.9121019 Z M20.7719745,67.9630573 L103.267516,67.9630573 L103.267516,11.7286624 L20.7719745,11.7286624 L20.7719745,67.9630573 L20.7719745,67.9630573 Z M61.6050955,58.8012739 L31.9872611,58.8012739 L31.9872611,29.1834395 L58.0509554,29.1834395 L66.6598726,17.533758 L69.8585987,19.9031847 L61.6050955,31.0394904 L61.6050955,58.8012739 L61.6050955,58.8012739 Z M35.9363057,54.8522293 L57.656051,54.8522293 L57.656051,36.4101911 L46.0458599,52.1273885 L37.7923567,38.1872611 L41.188535,36.1732484 L46.4012739,44.9796178 L55.1286624,33.1719745 L35.9363057,33.1719745 L35.9363057,54.8522293 L35.9363057,54.8522293 Z M80.1656051,49.3235669 L67.133758,49.3235669 L67.133758,45.3745223 L80.1656051,45.3745223 L80.1656051,49.3235669 L80.1656051,49.3235669 Z M92.2496815,41.2280255 L67.133758,41.2280255 L67.133758,37.2789809 L92.2496815,37.2789809 L92.2496815,41.2280255 L92.2496815,41.2280255 Z M92.2496815,33.1324841 L67.133758,33.1324841 L67.133758,29.1834395 L92.2496815,29.1834395 L92.2496815,33.1324841 L92.2496815,33.1324841 Z"></path>
            </g>
        </g>
    </g>
</svg>